<?xml version="1.0" encoding="UTF-8" standalone="no"?>
<svg
   width="141.73045pt"
   height="60.355473pt"
   viewBox="0 0 141.73045 60.355471"
   version="1.1"
   id="svg14"
   xmlns="http://www.w3.org/2000/svg"
   xmlns:svg="http://www.w3.org/2000/svg">
  <defs
     id="defs14" />
  <path
     fill-rule="nonzero"
     fill="#464648"
     fill-opacity="1"
     d="m 3.0039064,49.660155 c 0,2.296875 1.140625,3.777344 3.550782,3.777344 2.480468,0 3.5507806,-1.570313 3.5507806,-3.777344 V 46.01953 c 0,-2.253906 -1.3203126,-3.777344 -3.5507806,-3.777344 -2.300782,0 -3.550782,1.613282 -3.550782,3.777344 z m 3.550782,-10.105469 c 4.0742176,0 6.5546866,2.527344 6.5546866,6.601563 v 3.367187 c 0,4.1875 -2.480469,6.597656 -6.5546866,6.597656 C 2.4804694,56.121092 3.9675361e-7,53.710936 3.9675361e-7,49.523436 V 46.156249 C 3.9675361e-7,42.08203 2.4804694,39.554686 6.5546884,39.554686"
     id="path1" />
  <path
     fill-rule="nonzero"
     fill="#464648"
     fill-opacity="1"
     d="m 24.125,50.160155 c 0,-2.183594 -1.363281,-3.414063 -3.09375,-3.414063 -1.777344,0 -3.097656,1.273438 -3.097656,3.414063 0,2.140625 1.320312,3.414063 3.097656,3.414063 1.730469,0 3.09375,-1.226563 3.09375,-3.414063 m -9.058594,-5.644531 h 2.824219 v 1.59375 h 0.316406 c 0.59375,-0.957032 1.59375,-1.910156 3.597657,-1.910156 2.820312,0 5.1875,2.503906 5.1875,5.960937 0,3.460937 -2.367188,5.960937 -5.1875,5.960937 -2.003907,0 -3.003907,-0.953124 -3.597657,-1.910156 h -0.273437 v 6.144532 h -2.867188 z m 0,0"
     id="path2" />
  <path
     fill-rule="nonzero"
     fill="#464648"
     fill-opacity="1"
     d="m 36.414062,49.046874 c -0.15625,-1.480469 -1.113281,-2.390625 -2.589843,-2.390625 -1.617188,0 -2.503907,0.953125 -2.6875,2.390625 z m -2.566406,-4.847656 c 3.273438,0 5.480469,2.296874 5.480469,5.6875 v 1.070312 h -8.214844 c 0.117188,1.546875 1.183594,2.707031 2.824219,2.707031 1.589844,0 2.433594,-0.886719 2.820312,-1.683593 l 2.34375,1.367187 c -0.773437,1.183594 -2.09375,2.773437 -5.121093,2.773437 -3.367188,0 -5.800781,-2.546874 -5.800781,-6.050781 0,-3.414062 2.34375,-5.871093 5.667968,-5.871093"
     id="path3" />
  <path
     fill-rule="nonzero"
     fill="#464648"
     fill-opacity="1"
     d="m 43.929688,44.515624 v 1.820312 h 0.316406 c 0.457031,-1.046875 1.5,-2 3.574218,-2 2.503907,0 4.390626,1.796875 4.390626,4.730469 v 6.738281 H 49.34375 v -6.464844 c 0,-1.570312 -0.910156,-2.503906 -2.546875,-2.503906 -1.84375,0 -2.824219,1.140625 -2.824219,3.140625 v 5.828125 H 41.105469 V 44.515624 Z m 0,0"
     id="path4" />
  <path
     fill-rule="nonzero"
     fill="#464648"
     fill-opacity="1"
     d="m 56.582031,39.874999 1.914063,13.015625 h 0.273437 l 2.433594,-13.015625 h 4.691406 l 2.433594,13.015625 h 0.273437 l 1.910157,-13.015625 h 3.003911 l -2.503911,15.929687 h -4.890625 l -2.4375,-13.015625 h -0.273438 l -2.433594,13.015625 h -4.894531 l -2.5,-15.929687 z m 0,0"
     id="path5" />
  <path
     fill-rule="nonzero"
     fill="#464648"
     fill-opacity="1"
     d="m 82.23438,49.046874 c -0.15625,-1.480469 -1.11329,-2.390625 -2.59375,-2.390625 -1.61719,0 -2.50391,0.953125 -2.6836,2.390625 z m -2.57032,-4.847656 c 3.27344,0 5.48438,2.296874 5.48438,5.6875 v 1.070312 h -8.21485 c 0.11329,1.546875 1.1836,2.707031 2.82032,2.707031 1.59375,0 2.43359,-0.886719 2.82422,-1.683593 l 2.34375,1.367187 c -0.77735,1.183594 -2.09375,2.773437 -5.1211,2.773437 -3.37109,0 -5.80469,-2.546874 -5.80469,-6.050781 0,-3.414062 2.34375,-5.871093 5.66797,-5.871093"
     id="path6" />
  <path
     fill-rule="nonzero"
     fill="#464648"
     fill-opacity="1"
     d="m 91.17969,53.753905 c 2.0039,0 3.11719,-1.179687 3.11719,-2.726563 v -0.277343 l -3.45704,0.410156 c -1.07031,0.136719 -1.59375,0.617187 -1.59375,1.277344 0,0.773437 0.66016,1.316406 1.9336,1.316406 m 0.86328,-9.554687 c 3.00781,0 5.12109,1.75 5.12109,4.480468 v 7.125 h -2.82031 v -1.59375 h -0.31641 c -0.36718,0.75 -1.16015,1.910156 -3.55078,1.910156 -2.55078,0 -4.23437,-1.363281 -4.23437,-3.527343 0,-1.796875 1.57031,-3.046875 3.73047,-3.273438 l 4.32422,-0.480469 v -0.363281 c 0,-1.046875 -0.77344,-1.957031 -2.36719,-1.957031 -1.58985,0 -2.5,0.910156 -3.09375,2.183594 l -2.32031,-1.410156 c 0.88671,-1.296876 2.52734,-3.09375 5.52734,-3.09375"
     id="path7" />
  <path
     fill-rule="nonzero"
     fill="#464648"
     fill-opacity="1"
     d="m 101.03516,44.515624 v -3.503906 h 2.86718 v 3.503906 H 107 v 2.414062 h -3.09766 v 5.777344 c 0,0.457031 0.23047,0.683594 0.64063,0.683594 h 1.82031 v 2.414062 h -3.09766 c -1.27343,0 -2.23046,-0.910156 -2.23046,-2.183594 v -6.691406 h -2.86328 v -2.414062 z m 0,0"
     id="path8" />
  <path
     fill-rule="nonzero"
     fill="#464648"
     fill-opacity="1"
     d="m 111.78125,39.874999 v 6.460937 h 0.26953 c 0.45703,-1.046875 1.50391,-2 3.57422,-2 2.50391,0 4.39453,1.796875 4.39453,4.730469 v 6.738281 h -2.87109 v -6.464844 c 0,-1.570312 -0.91016,-2.503906 -2.54688,-2.503906 -1.84375,0 -2.82031,1.140625 -2.82031,3.144532 v 5.824218 h -2.86719 V 39.874999 Z m 0,0"
     id="path9" />
  <path
     fill-rule="nonzero"
     fill="#464648"
     fill-opacity="1"
     d="m 129.98828,49.046874 c -0.16016,-1.480469 -1.11328,-2.390625 -2.59375,-2.390625 -1.61719,0 -2.50391,0.953125 -2.68359,2.390625 z m -2.57031,-4.847656 c 3.27344,0 5.48047,2.296874 5.48047,5.6875 v 1.070312 h -8.21094 c 0.11328,1.546875 1.17969,2.707031 2.82031,2.707031 1.59375,0 2.4336,-0.886719 2.82422,-1.683593 l 2.33984,1.367187 c -0.77343,1.183594 -2.08984,2.773437 -5.12109,2.773437 -3.36719,0 -5.80078,-2.546874 -5.80078,-6.050781 0,-3.414062 2.34375,-5.871093 5.66797,-5.871093"
     id="path10" />
  <path
     fill-rule="nonzero"
     fill="#464648"
     fill-opacity="1"
     d="m 137.5,46.156249 h 0.31641 c 0.43359,-1.253907 1.39062,-1.683594 2.82421,-1.683594 h 1.08985 v 2.5 h -1.67969 c -1.45703,0 -2.50391,0.777344 -2.50391,2.371094 v 6.460937 h -2.86718 V 44.515624 H 137.5 Z m 0,0"
     id="path11" />
  <path
     fill-rule="nonzero"
     fill="#ea6d4a"
     fill-opacity="1"
     d="m 53.703125,22.910155 v 0.113281 c 0,0.820313 -0.660156,1.492188 -1.484375,1.492188 h -15.625 c -0.824219,0 -1.488281,0.664062 -1.488281,1.488281 v 0.113281 c 0,0.824219 0.664062,1.484375 1.488281,1.484375 h 0.613281 c 0.824219,0 1.496094,0.671875 1.496094,1.496094 v 0.113281 c 0,0.824219 -0.671875,1.488282 -1.496094,1.488282 h -1.855469 c -0.824218,0 -1.496093,0.671874 -1.496093,1.496093 v 0.113281 c 0,0.824219 0.671875,1.484376 1.496093,1.484376 h 10.167969 c 0.824219,0 1.484375,0.671874 1.484375,1.496093 v 0.113281 c 0,0.824219 -0.660156,1.488282 -1.484375,1.488282 H 18.570312 c -0.824218,0 -1.496093,-0.664063 -1.496093,-1.488282 v -0.113281 c 0,-0.824219 0.671875,-1.496093 1.496093,-1.496093 h 6.453126 c 0.828124,0 1.496093,-0.660157 1.496093,-1.484376 v -0.113281 c 0,-0.824219 -0.667969,-1.496093 -1.496093,-1.496093 h -9.59375 c -0.835938,0 -1.496094,-0.664063 -1.496094,-1.488282 v -0.113281 c 0,-0.199219 0.03516,-0.394531 0.113281,-0.566406 0.214844,-0.550781 0.757813,-0.929688 1.382813,-0.929688 h 0.5 c 0.824218,0 1.496093,-0.660156 1.496093,-1.484375 v -0.113281 c 0,-0.824219 -0.671875,-1.488281 -1.496093,-1.488281 h -5.785157 c -0.8242186,0 -1.4960926,-0.671875 -1.4960926,-1.492188 v -0.113281 c 0,-0.824219 0.671874,-1.488281 1.4960926,-1.488281 H 11.28125 C 11.128906,20.45703 11.046875,19.464842 11.046875,18.460936 11.046875,8.2656244 19.316406,-5.8916848e-7 29.503906,-5.8916848e-7 39.695312,-5.8916848e-7 47.960938,8.2656244 47.960938,18.460936 c 0,1.003906 -0.08594,1.996094 -0.234376,2.960938 h 4.492188 c 0.824219,0 1.484375,0.664062 1.484375,1.488281"
     id="path12" />
  <path
     fill-rule="nonzero"
     fill="#e9633e"
     fill-opacity="1"
     d="m 56.035156,29.097655 v 0.113281 c 0,0.824219 -0.671875,1.488282 -1.496094,1.488282 H 51.21875 c -0.824219,0 -1.488281,-0.664063 -1.488281,-1.488282 v -0.113281 c 0,-0.824219 0.664062,-1.496094 1.488281,-1.496094 h 3.320312 c 0.824219,0 1.496094,0.671875 1.496094,1.496094"
     id="path13" />
  <path
     fill-rule="nonzero"
     fill="#e9633e"
     fill-opacity="1"
     d="m 47.210938,29.097655 v 0.113281 c 0,0.824219 -0.671876,1.488282 -1.492188,1.488282 h -3.324219 c -0.824219,0 -1.488281,-0.664063 -1.488281,-1.488282 v -0.113281 c 0,-0.824219 0.664062,-1.496094 1.488281,-1.496094 h 3.324219 c 0.820312,0 1.492188,0.671875 1.492188,1.496094"
     id="path14" />
</svg>
